<?xml version="1.0" encoding="utf-8"?>
<!-- Generator: Adobe Illustrator 27.0.1, SVG Export Plug-In . SVG Version: 6.00 Build 0)  -->
<svg version="1.1" id="Layer_2_00000124128227280840389070000015614755886438204574_"
	 xmlns="http://www.w3.org/2000/svg" xmlns:xlink="http://www.w3.org/1999/xlink" x="0px" y="0px" viewBox="0 0 575 440"
	 style="enable-background:new 0 0 575 440;" xml:space="preserve">
<style type="text/css">
	.st0{fill:#FFFFFF;}
</style>
<g id="Layer_1-2">
	<g>
		<g>
			<path class="st0" d="M282,195.1c-2.5-2.5-5.8-3.8-9.8-3.8s-7.3,1.3-9.8,3.8c-2.5,2.5-3.8,5.9-3.8,10.2s1.3,7.6,3.8,10.2
				c2.5,2.5,5.8,3.8,9.8,3.8s7.3-1.3,9.8-3.8c2.5-2.5,3.8-5.9,3.8-10.2S284.5,197.6,282,195.1z"/>
			<path class="st0" d="M0,0v440h575V0H0z M428.4,201.9v-16h18.3v-18.3h16v18.3h18.3v16h-18.3v18.3h-16v-18.3H428.4z M399.3,213.7
				c-1.9-0.8-4.3-1.5-7-2.2c-2.7-0.7-5.5-1.7-8.2-2.9s-5.1-3-7-5.5s-2.9-5.6-2.9-9.2c0-5.9,2.1-10.5,6.5-13.8
				c4.3-3.3,9.6-4.9,15.9-4.9c4.7,0,9,1,12.9,3.1c3.9,2.1,7,5.1,9.4,9.1l-14.6,7.9c-1.8-3.4-4.4-5-7.6-5s-4.8,1.1-4.8,3.2
				c0,1.1,1,2.1,2.9,2.8c1.9,0.7,4.3,1.5,7,2.2s5.5,1.7,8.2,2.8c2.7,1.1,5.1,3,7,5.6c1.9,2.6,2.9,5.9,2.9,9.9c0,6.2-2.3,10.8-6.9,14
				s-10.2,4.7-16.9,4.7c-12,0-20.2-4.5-24.5-13.6l14.8-8.5c1.5,4.5,4.8,6.7,9.7,6.7c4.1,0,6.2-1.2,6.2-3.5
				C402.2,215.5,401.2,214.5,399.3,213.7L399.3,213.7z M333.4,214.8c2.4,2.5,5.5,3.7,9.2,3.7c5.4,0,9.1-2.1,11.1-6.4l15,8.6
				c-2.5,4.5-6,8.1-10.6,10.7s-9.6,4-15.2,4c-8.7,0-15.9-2.9-21.6-8.7c-5.8-5.8-8.6-12.9-8.6-21.5s2.9-15.7,8.6-21.5
				c5.8-5.8,13-8.7,21.6-8.7c5.5,0,10.5,1.3,15.1,4c4.6,2.7,8.2,6.2,10.7,10.6l-15,8.7c-2.1-4.3-5.8-6.4-11.1-6.4
				c-3.7,0-6.8,1.2-9.2,3.7s-3.6,5.6-3.6,9.5S330.9,212.3,333.4,214.8L333.4,214.8z M268.7,235.4c-7.5,0-14-2.9-19.3-8.7
				c-5.3-5.8-8-13-8-21.4s2.7-15.6,8-21.4s11.8-8.7,19.3-8.7s13,2.3,17,7v-5.4h17.1v57.1h-17.1v-5.4
				C281.7,233.1,276,235.4,268.7,235.4L268.7,235.4z M231.7,150.5v83.4h-17.1v-83.4L231.7,150.5L231.7,150.5z M184.6,202.3
				c-1.8-1.7-4.3-2.5-7.6-2.5h-25l3.3-45.9h46.2V171h-29.1l-0.8,11h6.5c7.8,0,14.4,2.3,19.6,7s7.8,11.2,7.8,19.7s-2.8,14.9-8.4,19.6
				c-5.6,4.7-12.5,7.1-20.7,7.1c-6.6,0-12.4-1.4-17.5-4.3c-5-2.9-8.7-7.1-11.1-12.9l15.8-9.1c2,5.6,6.2,8.5,12.8,8.5
				c3.6,0,6.3-0.8,8.1-2.5s2.7-3.8,2.7-6.4S186.3,204,184.6,202.3L184.6,202.3z M94.1,171.5v-17.6h52.5v15.3l-26,64.6h-19.4
				l25.1-62.4L94.1,171.5L94.1,171.5z"/>
		</g>
		<g>
			<path d="M107.5,265.6h-8.3v4.2h8.2v4.8h-8.2v8.1h-5v-22h13.4L107.5,265.6L107.5,265.6z"/>
			<path d="M123.8,280.8c-1.6,1.6-3.6,2.4-5.9,2.4s-4.3-0.8-5.9-2.4s-2.4-3.6-2.4-5.9s0.8-4.3,2.4-5.9c1.6-1.6,3.6-2.4,5.9-2.4
				s4.3,0.8,5.9,2.4c1.6,1.6,2.4,3.6,2.4,5.9S125.4,279.2,123.8,280.8z M115.3,277.6c0.7,0.7,1.6,1,2.6,1s1.9-0.4,2.6-1s1-1.6,1-2.7
				s-0.3-2-1-2.7s-1.6-1-2.6-1s-1.9,0.4-2.6,1s-1,1.6-1,2.7S114.6,276.9,115.3,277.6z"/>
			<path d="M133.6,269.9c0.3-1,0.9-1.8,1.8-2.3s1.9-0.8,2.9-0.8v5.4c-1.1-0.2-2.2,0-3.2,0.6c-1,0.6-1.5,1.6-1.5,3v7.1h-4.7v-15.7
				h4.7L133.6,269.9L133.6,269.9z"/>
			<path d="M157.8,267.1h5l-5,15.7h-4.4l-2.5-8.4l-2.5,8.4H144l-5-15.7h5l2.3,8.4l2.4-8.4h4.4l2.4,8.4L157.8,267.1L157.8,267.1z"/>
			<path d="M175.5,267.1h4.7v15.7h-4.7v-1.5c-1.1,1.3-2.7,1.9-4.7,1.9s-3.9-0.8-5.3-2.4c-1.5-1.6-2.2-3.6-2.2-5.9s0.7-4.3,2.2-5.9
				c1.5-1.6,3.2-2.4,5.3-2.4s3.6,0.6,4.7,1.9V267.1L175.5,267.1z M169.1,277.7c0.7,0.7,1.6,1,2.7,1s2-0.4,2.7-1s1-1.6,1-2.8
				s-0.4-2.1-1-2.8c-0.7-0.7-1.6-1-2.7-1s-2,0.4-2.7,1s-1,1.6-1,2.8S168.4,277,169.1,277.7z"/>
			<path d="M188.4,269.9c0.3-1,0.9-1.8,1.8-2.3s1.9-0.8,2.9-0.8v5.4c-1.1-0.2-2.2,0-3.2,0.6c-1,0.6-1.5,1.6-1.5,3v7.1h-4.7v-15.7
				h4.7L188.4,269.9L188.4,269.9z"/>
			<path d="M206.3,260.8h4.7v22h-4.7v-1.5c-1.1,1.3-2.7,1.9-4.7,1.9s-3.9-0.8-5.3-2.4c-1.5-1.6-2.2-3.6-2.2-5.9s0.7-4.3,2.2-5.9
				c1.5-1.6,3.2-2.4,5.3-2.4s3.6,0.6,4.7,1.9V260.8L206.3,260.8z M199.8,277.7c0.7,0.7,1.6,1,2.7,1s2-0.4,2.7-1s1-1.6,1-2.8
				s-0.4-2.1-1-2.8c-0.7-0.7-1.6-1-2.7-1s-2,0.4-2.7,1s-1,1.6-1,2.8S199.2,277,199.8,277.7z"/>
			<path d="M214.6,275.6v-4.5h11.9v4.5H214.6z"/>
			<path d="M239.1,271.6h-3.2v5.6c0,0.6,0.2,1,0.8,1.2c0.5,0.2,1.3,0.2,2.5,0.2v4.3c-3,0.3-5.1,0-6.2-0.9c-1.1-0.9-1.7-2.5-1.7-4.8
				v-5.6h-2.5v-4.5h2.5v-3l4.7-1.4v4.4h3.2V271.6L239.1,271.6z"/>
			<path d="M251,266.6c1.7,0,3.1,0.6,4.2,1.7c1.1,1.1,1.7,2.8,1.7,4.8v9.7h-4.7v-9c0-0.9-0.3-1.6-0.8-2.1c-0.5-0.5-1.2-0.7-2-0.7
				c-0.9,0-1.6,0.3-2.1,0.8c-0.5,0.5-0.8,1.4-0.8,2.4v8.6h-4.7v-22h4.7v7.8C247.4,267.3,248.9,266.6,251,266.6L251,266.6z"/>
			<path d="M264.5,264.9c-0.6,0.6-1.2,0.8-2,0.8s-1.4-0.3-2-0.8c-0.6-0.6-0.8-1.2-0.8-2s0.3-1.4,0.8-2c0.6-0.6,1.2-0.8,2-0.8
				s1.4,0.3,2,0.8c0.5,0.6,0.8,1.2,0.8,2S265,264.3,264.5,264.9z M260.1,282.8v-15.7h4.7v15.7H260.1z"/>
			<path d="M277.5,266.6c1.7,0,3.1,0.6,4.2,1.7c1.1,1.1,1.7,2.8,1.7,4.8v9.7h-4.7v-9c0-0.9-0.3-1.6-0.8-2.1c-0.5-0.5-1.2-0.7-2-0.7
				c-0.9,0-1.6,0.3-2.1,0.8c-0.5,0.5-0.8,1.4-0.8,2.4v8.6h-4.7v-15.7h4.7v1.5C273.9,267.3,275.4,266.6,277.5,266.6L277.5,266.6z"/>
			<path d="M301.7,282.8h-5.4l-5-7v7h-4.7v-22h4.7V274l4.7-6.9h5.5l-5.7,7.9L301.7,282.8L301.7,282.8z"/>
			<path d="M307.8,264.9c-0.6,0.6-1.2,0.8-2,0.8s-1.4-0.3-2-0.8c-0.6-0.6-0.8-1.2-0.8-2s0.3-1.4,0.8-2c0.6-0.6,1.2-0.8,2-0.8
				s1.4,0.3,2,0.8c0.5,0.6,0.8,1.2,0.8,2S308.3,264.3,307.8,264.9z M303.4,282.8v-15.7h4.7v15.7H303.4z"/>
			<path d="M320.8,266.6c1.7,0,3.1,0.6,4.2,1.7c1.1,1.1,1.7,2.8,1.7,4.8v9.7H322v-9c0-0.9-0.3-1.6-0.8-2.1c-0.5-0.5-1.2-0.7-2-0.7
				c-0.9,0-1.6,0.3-2.1,0.8c-0.5,0.5-0.8,1.4-0.8,2.4v8.6h-4.7v-15.7h4.7v1.5C317.3,267.3,318.8,266.6,320.8,266.6L320.8,266.6z"/>
			<path d="M341.5,267.1h4.6V282c0,2.5-0.8,4.4-2.4,5.6c-1.6,1.3-3.6,1.9-5.9,1.9c-3.5,0-6-1.3-7.5-3.8l4-2.3c0.7,1.3,1.9,2,3.6,2
				c1.1,0,2-0.3,2.6-0.9c0.6-0.6,0.9-1.4,0.9-2.5v-1.5c-1.1,1.4-2.6,2-4.6,2c-2.2,0-4-0.8-5.5-2.3c-1.5-1.6-2.2-3.4-2.2-5.6
				s0.7-4.1,2.2-5.6c1.5-1.6,3.3-2.3,5.5-2.3c2,0,3.5,0.7,4.6,2L341.5,267.1L341.5,267.1z M335,277.3c0.7,0.7,1.6,1,2.7,1
				s2-0.3,2.7-1c0.7-0.7,1.1-1.5,1.1-2.6s-0.4-2-1.1-2.6c-0.7-0.7-1.6-1-2.7-1s-2,0.3-2.7,1c-0.7,0.7-1.1,1.5-1.1,2.6
				S334.3,276.6,335,277.3z"/>
			<path d="M366.8,266.6c2.1,0,3.9,0.8,5.3,2.4c1.5,1.6,2.2,3.6,2.2,5.9s-0.7,4.3-2.2,5.9c-1.5,1.6-3.2,2.4-5.3,2.4
				s-3.6-0.6-4.7-1.9v7.8h-4.7v-22h4.7v1.5C363.2,267.3,364.8,266.6,366.8,266.6L366.8,266.6z M363.2,277.7c0.7,0.7,1.6,1,2.7,1
				s2-0.4,2.7-1s1-1.6,1-2.8s-0.4-2.1-1-2.8c-0.7-0.7-1.6-1-2.7-1s-2,0.4-2.7,1s-1,1.6-1,2.8S362.5,277,363.2,277.7z"/>
			<path d="M388.4,267.1h4.7v15.7h-4.7v-1.5c-1.1,1.3-2.7,1.9-4.7,1.9s-3.9-0.8-5.3-2.4c-1.5-1.6-2.2-3.6-2.2-5.9s0.7-4.3,2.2-5.9
				c1.5-1.6,3.2-2.4,5.3-2.4s3.6,0.6,4.7,1.9V267.1L388.4,267.1z M382,277.7c0.7,0.7,1.6,1,2.7,1s2-0.4,2.7-1s1-1.6,1-2.8
				s-0.4-2.1-1-2.8s-1.6-1-2.7-1s-2,0.4-2.7,1s-1,1.6-1,2.8S381.3,277,382,277.7z"/>
			<path d="M401.3,269.9c0.3-1,0.9-1.8,1.8-2.3c0.9-0.5,1.9-0.8,2.9-0.8v5.4c-1.1-0.2-2.2,0-3.2,0.6c-1,0.6-1.5,1.6-1.5,3v7.1h-4.7
				v-15.7h4.7L401.3,269.9L401.3,269.9z"/>
			<path d="M417.9,271.6h-3.2v5.6c0,0.6,0.2,1,0.8,1.2c0.5,0.2,1.3,0.2,2.5,0.2v4.3c-3,0.3-5.1,0-6.2-0.9c-1.1-0.9-1.7-2.5-1.7-4.8
				v-5.6h-2.5v-4.5h2.5v-3l4.7-1.4v4.4h3.2V271.6L417.9,271.6z"/>
			<path d="M430.1,266.6c1.7,0,3.1,0.6,4.2,1.7c1.1,1.1,1.7,2.8,1.7,4.8v9.7h-4.7v-9c0-0.9-0.3-1.6-0.8-2.1c-0.5-0.5-1.2-0.7-2-0.7
				c-0.9,0-1.6,0.3-2.1,0.8c-0.5,0.5-0.8,1.4-0.8,2.4v8.6h-4.7v-15.7h4.7v1.5C426.6,267.3,428.1,266.6,430.1,266.6L430.1,266.6z"/>
			<path d="M443.5,276.8c0.5,1.5,1.8,2.2,3.8,2.2c1.3,0,2.3-0.4,3-1.2l3.8,2.2c-1.5,2.2-3.8,3.2-6.9,3.2c-2.6,0-4.8-0.8-6.3-2.4
				c-1.6-1.6-2.4-3.5-2.4-5.9s0.8-4.4,2.3-5.9s3.6-2.4,6-2.4c2.3,0,4.2,0.8,5.7,2.4s2.3,3.6,2.3,5.9c0,0.7-0.1,1.3-0.2,1.9
				L443.5,276.8L443.5,276.8z M443.4,273.3h6.8c-0.5-1.7-1.6-2.5-3.3-2.5S443.9,271.6,443.4,273.3L443.4,273.3z"/>
			<path d="M462.2,269.9c0.3-1,0.9-1.8,1.8-2.3c0.9-0.5,1.9-0.8,2.9-0.8v5.4c-1.1-0.2-2.2,0-3.2,0.6c-1,0.6-1.5,1.6-1.5,3v7.1h-4.7
				v-15.7h4.7L462.2,269.9L462.2,269.9z"/>
			<path d="M473.1,271.7c0,0.3,0.3,0.6,0.8,0.8c0.5,0.2,1.2,0.4,1.9,0.6c0.8,0.2,1.5,0.5,2.3,0.8c0.8,0.3,1.4,0.8,1.9,1.6
				c0.5,0.7,0.8,1.6,0.8,2.7c0,1.7-0.6,3-1.9,3.9s-2.8,1.3-4.7,1.3c-3.3,0-5.6-1.2-6.8-3.7l4.1-2.3c0.4,1.2,1.3,1.9,2.7,1.9
				c1.1,0,1.7-0.3,1.7-1c0-0.3-0.3-0.6-0.8-0.8c-0.5-0.2-1.2-0.4-1.9-0.6c-0.8-0.2-1.5-0.5-2.3-0.8c-0.8-0.3-1.4-0.8-1.9-1.5
				c-0.5-0.7-0.8-1.5-0.8-2.5c0-1.6,0.6-2.9,1.8-3.8c1.2-0.9,2.6-1.4,4.4-1.4c1.3,0,2.5,0.3,3.5,0.9c1.1,0.6,1.9,1.4,2.6,2.5l-4,2.2
				c-0.5-0.9-1.2-1.4-2.1-1.4S473.1,271.1,473.1,271.7L473.1,271.7z"/>
		</g>
	</g>
</g>
</svg>
