<?xml version="1.0" encoding="UTF-8"?><svg id="Layer_2" xmlns="http://www.w3.org/2000/svg" viewBox="0 0 1345 639.78"><defs><style>.cls-1{fill:#fff;}</style></defs><g id="Layer_1-2"><g><path class="cls-1" d="M0,0V639.78H1345V0H0ZM486.61,257.71c13.32,0,24.4,3.98,33.26,11.93,8.85,7.95,13.29,19.1,13.29,33.46s-4.79,25.34-14.35,33.36c-9.57,8.02-21.27,12.02-35.1,12.02-11.25,0-21.14-2.42-29.67-7.27-8.53-4.85-14.81-12.12-18.81-21.82l26.76-15.52c3.36,9.57,10.6,14.35,21.72,14.35,6.08,0,10.67-1.42,13.77-4.27,3.1-2.84,4.65-6.46,4.65-10.86s-1.49-8.02-4.46-10.86c-2.98-2.84-7.31-4.27-12.99-4.27h-42.47l5.62-77.97h78.55v29.09h-49.46l-1.36,18.62h11.05Zm-53.33-47.71v25.99l-44.22,109.77h-32.97l42.67-105.89h-54.69v-29.87h89.21Zm207.32,138.48c-12.8,0-23.73-4.95-32.78-14.84-9.05-9.89-13.58-22.01-13.58-36.36s4.52-26.47,13.58-36.36c9.05-9.89,19.98-14.84,32.78-14.84s22.04,3.95,28.9,11.83v-9.12h29.09v96.97h-29.09v-9.12c-6.85,7.89-16.49,11.83-28.9,11.83Zm109.77-35.01c4.14,4.2,9.37,6.3,15.71,6.3,9.18,0,15.45-3.62,18.81-10.86l25.41,14.55c-4.27,7.63-10.28,13.71-18.04,18.23-7.76,4.52-16.36,6.79-25.79,6.79-14.74,0-26.99-4.91-36.75-14.74-9.76-9.82-14.64-21.98-14.64-36.46s4.88-26.63,14.64-36.46c9.76-9.82,22.01-14.74,36.75-14.74,9.31,0,17.87,2.26,25.7,6.79,7.82,4.53,13.87,10.54,18.13,18.04l-25.41,14.74c-3.49-7.24-9.76-10.86-18.81-10.86-6.34,0-11.57,2.1-15.71,6.3-4.14,4.2-6.21,9.6-6.21,16.19s2.07,11.99,6.21,16.19Zm112-1.84c-3.3-1.29-7.27-2.55-11.93-3.78-4.66-1.23-9.31-2.84-13.96-4.85-4.65-2-8.63-5.14-11.93-9.41s-4.95-9.5-4.95-15.71c0-10.08,3.65-17.91,10.96-23.47,7.3-5.56,16.32-8.34,27.05-8.34,8.02,0,15.32,1.78,21.92,5.33,6.59,3.56,11.89,8.7,15.9,15.42l-24.83,13.38c-3.1-5.69-7.44-8.53-12.99-8.53s-8.15,1.81-8.15,5.43c0,1.94,1.65,3.52,4.95,4.75,3.3,1.23,7.27,2.46,11.93,3.69,4.65,1.23,9.31,2.81,13.96,4.75,4.66,1.94,8.63,5.14,11.93,9.6s4.95,10.05,4.95,16.78c0,10.47-3.88,18.39-11.64,23.76-7.76,5.36-17.33,8.05-28.7,8.05-20.43,0-34.33-7.69-41.7-23.08l25.21-14.35c2.58,7.63,8.08,11.44,16.49,11.44,6.98,0,10.47-2,10.47-6.01,0-1.94-1.65-3.55-4.94-4.85Zm138.57-47.32v27.15h-31.03v31.03h-27.15v-31.03h-31.03v-27.15h31.03v-31.03h27.15v31.03h31.03Zm-423.18,81.46h-29.09V210h29.09v135.76Z"/><path class="cls-1" d="M646.41,273.61c-6.85,0-12.41,2.13-16.68,6.4-4.27,4.27-6.4,10.02-6.4,17.26s2.13,12.99,6.4,17.26c4.27,4.27,9.82,6.4,16.68,6.4s12.41-2.13,16.68-6.4c4.27-4.27,6.4-10.02,6.4-17.26s-2.13-12.99-6.4-17.26c-4.27-4.27-9.83-6.4-16.68-6.4Z"/><g><path d="M363.89,388.8h-14.29v7.28h14.02v8.3h-14.02v13.86h-8.63v-37.75h22.92v8.3Z"/><path d="M391.82,414.87c-2.77,2.75-6.15,4.13-10.14,4.13s-7.37-1.37-10.14-4.13c-2.77-2.75-4.15-6.12-4.15-10.11s1.38-7.36,4.15-10.11c2.77-2.75,6.15-4.13,10.14-4.13s7.37,1.37,10.14,4.13,4.15,6.12,4.15,10.11-1.38,7.36-4.15,10.11Zm-14.56-5.53c1.18,1.19,2.66,1.78,4.42,1.78s3.24-.59,4.42-1.78c1.18-1.19,1.78-2.71,1.78-4.58s-.59-3.4-1.78-4.58c-1.19-1.19-2.66-1.78-4.42-1.78s-3.24,.59-4.42,1.78c-1.19,1.19-1.78,2.71-1.78,4.58s.59,3.4,1.78,4.58Z"/><path d="M408.65,396.08c.5-1.73,1.52-3.05,3.05-3.96,1.53-.92,3.21-1.38,5.04-1.38v9.17c-1.98-.32-3.82,0-5.53,1-1.71,.99-2.56,2.71-2.56,5.15v12.19h-8.09v-26.96h8.09v4.8Z"/><path d="M450.17,391.28h8.63l-8.63,26.96h-7.55l-4.31-14.4-4.31,14.4h-7.55l-8.63-26.96h8.63l3.88,14.45,4.21-14.45h7.55l4.21,14.45,3.88-14.45Z"/><path d="M480.53,391.28h8.09v26.96h-8.09v-2.53c-1.91,2.19-4.58,3.29-8.03,3.29s-6.6-1.37-9.11-4.13c-2.52-2.75-3.78-6.12-3.78-10.11s1.26-7.36,3.78-10.11c2.52-2.75,5.55-4.13,9.11-4.13s6.13,1.1,8.03,3.29v-2.53Zm-11.05,18.28c1.18,1.19,2.73,1.78,4.64,1.78s3.45-.59,4.64-1.78c1.19-1.19,1.78-2.79,1.78-4.8s-.59-3.61-1.78-4.8c-1.19-1.19-2.73-1.78-4.64-1.78s-3.45,.59-4.64,1.78c-1.19,1.19-1.78,2.79-1.78,4.8s.59,3.61,1.78,4.8Z"/><path d="M502.64,396.08c.5-1.73,1.52-3.05,3.05-3.96,1.53-.92,3.21-1.38,5.04-1.38v9.17c-1.98-.32-3.82,0-5.53,1-1.71,.99-2.56,2.71-2.56,5.15v12.19h-8.09v-26.96h8.09v4.8Z"/><path d="M533.27,380.49h8.09v37.75h-8.09v-2.53c-1.91,2.19-4.58,3.29-8.03,3.29s-6.6-1.37-9.11-4.13c-2.52-2.75-3.78-6.12-3.78-10.11s1.26-7.36,3.78-10.11c2.52-2.75,5.55-4.13,9.11-4.13s6.13,1.1,8.03,3.29v-13.32Zm-11.05,29.07c1.18,1.19,2.73,1.78,4.64,1.78s3.45-.59,4.64-1.78c1.19-1.19,1.78-2.79,1.78-4.8s-.59-3.61-1.78-4.8c-1.19-1.19-2.73-1.78-4.64-1.78s-3.45,.59-4.64,1.78c-1.19,1.19-1.78,2.79-1.78,4.8s.59,3.61,1.78,4.8Z"/><path d="M547.56,406v-7.77h20.49v7.77h-20.49Z"/><path d="M589.51,399.04h-5.55v9.54c0,1.08,.43,1.76,1.3,2.05,.86,.29,2.28,.38,4.26,.27v7.33c-5.14,.54-8.7,.04-10.68-1.48-1.98-1.53-2.97-4.25-2.97-8.17v-9.54h-4.31v-7.77h4.31v-5.12l8.09-2.43v7.55h5.55v7.77Z"/><path d="M609.89,390.52c2.88,0,5.28,.99,7.2,2.97,1.92,1.98,2.88,4.71,2.88,8.2v16.56h-8.09v-15.37c0-1.58-.44-2.79-1.32-3.64-.88-.84-2-1.27-3.37-1.27-1.55,0-2.77,.47-3.67,1.4-.9,.94-1.35,2.32-1.35,4.15v14.72h-8.09v-37.75h8.09v13.32c1.62-2.19,4.19-3.29,7.71-3.29Z"/><path d="M633,387.48c-.95,.95-2.09,1.43-3.42,1.43s-2.47-.48-3.42-1.43c-.95-.95-1.43-2.09-1.43-3.42s.48-2.47,1.43-3.42c.95-.95,2.09-1.43,3.42-1.43s2.47,.48,3.42,1.43c.95,.95,1.43,2.09,1.43,3.42s-.48,2.47-1.43,3.42Zm-7.47,30.76v-26.96h8.09v26.96h-8.09Z"/><path d="M655.35,390.52c2.88,0,5.28,.99,7.2,2.97,1.92,1.98,2.88,4.71,2.88,8.2v16.56h-8.09v-15.37c0-1.58-.44-2.79-1.32-3.64-.88-.84-2-1.27-3.37-1.27-1.55,0-2.77,.47-3.67,1.4-.9,.94-1.35,2.32-1.35,4.15v14.72h-8.09v-26.96h8.09v2.53c1.62-2.19,4.19-3.29,7.71-3.29Z"/><path d="M696.88,418.24h-9.17l-8.63-11.92v11.92h-8.09v-37.75h8.09v22.59l8.09-11.81h9.44l-9.81,13.48,10.08,13.48Z"/><path d="M707.31,387.48c-.95,.95-2.09,1.43-3.42,1.43s-2.47-.48-3.42-1.43c-.95-.95-1.43-2.09-1.43-3.42s.48-2.47,1.43-3.42c.95-.95,2.09-1.43,3.42-1.43s2.47,.48,3.42,1.43c.95,.95,1.43,2.09,1.43,3.42s-.48,2.47-1.43,3.42Zm-7.47,30.76v-26.96h8.09v26.96h-8.09Z"/><path d="M729.66,390.52c2.88,0,5.28,.99,7.2,2.97,1.92,1.98,2.88,4.71,2.88,8.2v16.56h-8.09v-15.37c0-1.58-.44-2.79-1.32-3.64-.88-.84-2-1.27-3.37-1.27-1.55,0-2.77,.47-3.67,1.4-.9,.94-1.35,2.32-1.35,4.15v14.72h-8.09v-26.96h8.09v2.53c1.62-2.19,4.19-3.29,7.71-3.29Z"/><path d="M765.09,391.28h7.87v25.61c0,4.24-1.38,7.45-4.15,9.63-2.77,2.17-6.13,3.26-10.08,3.26-6.08,0-10.33-2.18-12.78-6.52l6.9-3.99c1.22,2.26,3.27,3.4,6.15,3.4,1.91,0,3.4-.49,4.48-1.48,1.08-.99,1.62-2.42,1.62-4.29v-2.48c-1.87,2.34-4.49,3.51-7.87,3.51-3.78,0-6.93-1.34-9.46-4.02-2.53-2.68-3.8-5.91-3.8-9.68s1.27-7,3.8-9.68c2.53-2.68,5.69-4.02,9.46-4.02,3.38,0,6,1.17,7.87,3.51v-2.75Zm-11.22,17.47c1.22,1.15,2.79,1.73,4.69,1.73s3.47-.57,4.69-1.73c1.22-1.15,1.83-2.66,1.83-4.53s-.61-3.38-1.83-4.53c-1.22-1.15-2.79-1.73-4.69-1.73s-3.47,.58-4.69,1.73c-1.22,1.15-1.83,2.66-1.83,4.53s.61,3.38,1.83,4.53Z"/><path d="M808.5,390.52c3.56,0,6.6,1.37,9.11,4.13,2.51,2.75,3.77,6.12,3.77,10.11s-1.26,7.36-3.77,10.11c-2.52,2.75-5.55,4.13-9.11,4.13s-6.13-1.1-8.04-3.29v13.32h-8.09v-37.75h8.09v2.53c1.91-2.19,4.58-3.29,8.04-3.29Zm-6.23,19.04c1.2,1.19,2.74,1.78,4.61,1.78s3.4-.59,4.61-1.78c1.2-1.19,1.81-2.79,1.81-4.8s-.6-3.61-1.81-4.8c-1.2-1.19-2.74-1.78-4.61-1.78s-3.41,.59-4.61,1.78c-1.2,1.19-1.81,2.79-1.81,4.8s.6,3.61,1.81,4.8Z"/><path d="M845.55,391.28h8.09v26.96h-8.09v-2.53c-1.91,2.19-4.58,3.29-8.03,3.29s-6.6-1.37-9.11-4.13c-2.52-2.75-3.78-6.12-3.78-10.11s1.26-7.36,3.78-10.11c2.52-2.75,5.55-4.13,9.11-4.13s6.13,1.1,8.03,3.29v-2.53Zm-11.05,18.28c1.18,1.19,2.73,1.78,4.64,1.78s3.45-.59,4.64-1.78c1.19-1.19,1.78-2.79,1.78-4.8s-.59-3.61-1.78-4.8c-1.19-1.19-2.73-1.78-4.64-1.78s-3.45,.59-4.64,1.78c-1.19,1.19-1.78,2.79-1.78,4.8s.59,3.61,1.78,4.8Z"/><path d="M867.65,396.08c.5-1.73,1.52-3.05,3.05-3.96,1.53-.92,3.21-1.38,5.04-1.38v9.17c-1.98-.32-3.82,0-5.53,1-1.71,.99-2.56,2.71-2.56,5.15v12.19h-8.09v-26.96h8.09v4.8Z"/><path d="M896.12,399.04h-5.55v9.54c0,1.08,.43,1.76,1.3,2.05,.86,.29,2.28,.38,4.26,.27v7.33c-5.14,.54-8.7,.04-10.68-1.48-1.98-1.53-2.97-4.25-2.97-8.17v-9.54h-4.31v-7.77h4.31v-5.12l8.09-2.43v7.55h5.55v7.77Z"/><path d="M917.05,390.52c2.88,0,5.28,.99,7.2,2.97,1.92,1.98,2.88,4.71,2.88,8.2v16.56h-8.09v-15.37c0-1.58-.44-2.79-1.32-3.64-.88-.84-2-1.27-3.37-1.27-1.55,0-2.77,.47-3.67,1.4-.9,.94-1.35,2.32-1.35,4.15v14.72h-8.09v-26.96h8.09v2.53c1.62-2.19,4.19-3.29,7.71-3.29Z"/><path d="M939.91,407.99c.93,2.52,3.09,3.77,6.47,3.77,2.19,0,3.92-.68,5.18-2.05l6.47,3.72c-2.66,3.7-6.58,5.55-11.76,5.55-4.53,0-8.15-1.35-10.87-4.04-2.72-2.7-4.07-6.09-4.07-10.19s1.34-7.45,4.02-10.16c2.68-2.71,6.12-4.07,10.33-4.07,3.92,0,7.18,1.36,9.79,4.07,2.61,2.71,3.91,6.1,3.91,10.16,0,1.15-.11,2.23-.32,3.24h-19.14Zm-.16-6.04h11.59c-.79-2.84-2.7-4.26-5.72-4.26s-5.09,1.42-5.88,4.26Z"/><path d="M972.05,396.08c.5-1.73,1.52-3.05,3.05-3.96,1.53-.92,3.21-1.38,5.04-1.38v9.17c-1.98-.32-3.82,0-5.53,1-1.71,.99-2.56,2.71-2.56,5.15v12.19h-8.09v-26.96h8.09v4.8Z"/><path d="M990.76,399.15c0,.54,.46,.98,1.38,1.32,.92,.34,2.02,.68,3.32,1.02,1.3,.34,2.59,.78,3.88,1.32,1.3,.54,2.4,1.43,3.32,2.67,.92,1.24,1.37,2.8,1.37,4.66,0,2.91-1.08,5.11-3.24,6.61-2.16,1.49-4.82,2.24-7.98,2.24-5.68,0-9.54-2.14-11.59-6.42l7.01-3.99c.72,2.12,2.25,3.18,4.58,3.18,1.94,0,2.91-.56,2.91-1.67,0-.54-.46-.99-1.38-1.35-.92-.36-2.02-.71-3.32-1.05-1.29-.34-2.59-.79-3.88-1.35-1.3-.56-2.4-1.43-3.32-2.62-.92-1.19-1.38-2.64-1.38-4.37,0-2.8,1.02-4.98,3.05-6.53,2.03-1.55,4.54-2.32,7.52-2.32,2.23,0,4.26,.49,6.09,1.48,1.83,.99,3.31,2.42,4.42,4.29l-6.9,3.72c-.86-1.58-2.07-2.37-3.61-2.37s-2.27,.5-2.27,1.51Z"/></g></g></g></svg>