<svg xmlns="http://www.w3.org/2000/svg" width="102.858" height="26.209" viewBox="0 0 102.858 26.209">
  <g id="Group_26483" data-name="Group 26483" transform="translate(15792.213 8901.324)">
    <path id="BuzzFeed_is_the_soci" data-name="BuzzFeed is the soci" d="M8.627-19.6H1.894V-2.965H8.627c5.023,0,8.587-3.477,8.587-8.331S13.664-19.6,8.627-19.6ZM8.411-7.162H6.5V-15.4H8.411A3.877,3.877,0,0,1,12.516-11.3,3.906,3.906,0,0,1,8.411-7.162ZM25.829-2.544c4.17,0,7.195-2.873,7.195-6.837S30-16.218,25.829-16.218s-7.195,2.859-7.195,6.837S21.645-2.544,25.829-2.544Zm0-3.971a2.7,2.7,0,0,1-2.768-2.866,2.7,2.7,0,0,1,2.768-2.866A2.707,2.707,0,0,1,28.6-9.381a2.7,2.7,0,0,1-2.768,2.866Zm16-.321A1.361,1.361,0,0,1,40.347-8.31v-4.084h3.112v-3.4H40.235V-19.55h-.908l-5.75,6.123v1.033h2.349v4.842a4.222,4.222,0,0,0,4.563,4.587H43.53V-6.836ZM52.894-19.6H45.811V-2.965H50.4V-7.559h2.489a5.921,5.921,0,0,0,6.163-6.03A5.905,5.905,0,0,0,52.894-19.6Zm-.549,8.039H50.4V-15.6h1.94a1.911,1.911,0,0,1,2,2.019A1.911,1.911,0,0,1,52.344-11.561ZM74.074-9.5a6.664,6.664,0,0,0-7-6.715A6.692,6.692,0,0,0,60.1-9.391a6.73,6.73,0,0,0,6.97,6.847A6.757,6.757,0,0,0,73.792-7.3h-4.4a2.577,2.577,0,0,1-2.32,1.2,2.493,2.493,0,0,1-2.62-2.233h9.529a8.131,8.131,0,0,0,.091-1.17Zm-7-3.252a2.579,2.579,0,0,1,2.646,1.975H64.531A2.484,2.484,0,0,1,67.073-12.755Z" transform="translate(-15763.429 -8877.148)"/>
    <path id="Path_43496" data-name="Path 43496" d="M21.72,0a4.357,4.357,0,0,1,4.344,4.369V21.84a4.357,4.357,0,0,1-4.344,4.369H4.345A4.357,4.357,0,0,1,0,21.84V4.369A4.357,4.357,0,0,1,4.345,0ZM7.6,8.738a2.548,2.548,0,1,0,2.534,2.548A2.548,2.548,0,0,0,7.6,8.738Zm10.859,0A2.548,2.548,0,1,0,21,11.286,2.548,2.548,0,0,0,18.462,8.738Z" transform="translate(-15792.213 -8901.324)" fill-rule="evenodd"/>
  </g>
</svg>
