<svg xmlns="http://www.w3.org/2000/svg" width="24.675" height="20.528" viewBox="0 0 24.675 20.528">
  <g id="right-arrow-11" transform="translate(0 -41.346)">
    <g id="Group_139621" data-name="Group 139621" transform="translate(0 41.346)">
      <path id="Path_296569" data-name="Path 296569" d="M24.28,50.651,15.369,41.74a1.354,1.354,0,0,0-1.91,0l-.809.809a1.34,1.34,0,0,0-.394.955,1.367,1.367,0,0,0,.394.966l5.2,5.21H1.333A1.318,1.318,0,0,0,0,51.008v1.144a1.368,1.368,0,0,0,1.333,1.387H17.908l-5.257,5.239a1.337,1.337,0,0,0,0,1.9l.809.807a1.355,1.355,0,0,0,1.91,0l8.911-8.911a1.362,1.362,0,0,0,0-1.917Z" transform="translate(0 -41.346)" fill="#000000"/>
    </g>
  </g>
</svg>
